<?xml version="1.0"?>
<!-- Generated by SVGo -->
<svg width="87.152mm" height="121.202mm"
     viewBox="0.000 0.000 87.152 121.202"
     xmlns="http://www.w3.org/2000/svg" 
     xmlns:xlink="http://www.w3.org/1999/xlink">
<polygon points="79.152,5.001 79.387,5.010 79.621,5.037 79.852,5.083 80.079,5.147 80.300,5.229 80.513,5.327 80.719,5.443 80.915,5.573 81.100,5.719 81.273,5.879 81.433,6.052 81.579,6.237 81.709,6.433 81.825,6.639 81.923,6.852 82.005,7.073 82.069,7.300 82.115,7.531 82.142,7.765 82.152,8.001 82.152,113.202 82.142,113.437 82.115,113.671 82.069,113.902 82.005,114.129 81.923,114.350 81.825,114.563 81.709,114.769 81.579,114.965 81.433,115.150 81.273,115.323 81.100,115.483 80.915,115.629 80.719,115.759 80.513,115.875 80.300,115.973 80.079,116.055 79.852,116.119 79.621,116.165 79.387,116.192 79.151,116.202 8.001,116.202 7.765,116.192 7.531,116.165 7.300,116.119 7.073,116.055 6.852,115.973 6.639,115.875 6.433,115.759 6.237,115.629 6.052,115.483 5.879,115.323 5.719,115.150 5.573,114.965 5.443,114.769 5.327,114.563 5.229,114.350 5.147,114.129 5.083,113.902 5.037,113.671 5.010,113.437 5.000,113.201 5.001,8.001 5.010,7.765 5.037,7.531 5.083,7.300 5.147,7.073 5.229,6.852 5.327,6.639 5.443,6.433 5.573,6.237 5.719,6.052 5.879,5.879 6.052,5.719 6.237,5.573 6.433,5.443 6.639,5.327 6.852,5.229 7.073,5.147 7.300,5.083 7.531,5.037 7.765,5.010 8.001,5.000" style="fill:none;stroke-width:0.050000mm;stroke:black"/>
<polygon points="9.537,109.775 9.119,109.988 8.787,110.320 8.574,110.738 8.501,111.202 8.574,111.665 8.787,112.083 9.119,112.415 9.537,112.628 10.001,112.702 10.464,112.628 10.882,112.415 11.214,112.083 11.427,111.665 11.501,111.202 11.427,110.738 11.214,110.320 10.882,109.988 10.464,109.775 10.001,109.702" style="fill:none;stroke-width:0.050000mm;stroke:black"/>
<polygon points="76.688,109.775 76.270,109.988 75.938,110.320 75.725,110.738 75.652,111.202 75.725,111.665 75.938,112.083 76.270,112.415 76.688,112.628 77.152,112.702 77.615,112.628 78.033,112.415 78.365,112.083 78.578,111.665 78.652,111.202 78.578,110.738 78.365,110.320 78.033,109.988 77.615,109.775 77.152,109.702" style="fill:none;stroke-width:0.050000mm;stroke:black"/>
<polygon points="55.626,89.676 55.626,90.676 54.826,90.676 54.826,93.775 55.626,93.775 55.626,99.576 54.826,99.576 54.826,102.676 55.626,102.676 55.626,103.676 69.626,103.676 69.626,102.676 70.426,102.676 70.426,99.576 69.626,99.576 69.626,93.775 70.426,93.775 70.426,90.676 69.626,90.676 69.626,89.676" style="fill:none;stroke-width:0.050000mm;stroke:black"/>
<polygon points="36.576,89.676 36.576,90.676 35.776,90.676 35.776,93.775 36.576,93.775 36.576,99.576 35.776,99.576 35.776,102.676 36.576,102.676 36.576,103.676 50.576,103.676 50.576,102.676 51.376,102.676 51.376,99.576 50.576,99.576 50.576,93.775 51.376,93.775 51.376,90.676 50.576,90.676 50.576,89.676" style="fill:none;stroke-width:0.050000mm;stroke:black"/>
<polygon points="17.526,89.676 17.526,90.676 16.725,90.676 16.725,93.775 17.526,93.775 17.526,99.576 16.725,99.576 16.725,102.676 17.526,102.676 17.526,103.676 31.526,103.676 31.526,102.676 32.324,102.676 32.324,99.576 31.526,99.576 31.526,93.775 32.324,93.775 32.324,90.676 31.526,90.676 31.526,89.676" style="fill:none;stroke-width:0.050000mm;stroke:black"/>
<polygon points="55.626,70.626 55.626,71.626 54.826,71.626 54.826,74.726 55.626,74.726 55.626,80.526 54.826,80.526 54.826,83.626 55.626,83.626 55.626,84.626 69.626,84.626 69.626,83.626 70.426,83.626 70.426,80.526 69.626,80.526 69.626,74.726 70.426,74.726 70.426,71.626 69.626,71.626 69.626,70.626" style="fill:none;stroke-width:0.050000mm;stroke:black"/>
<polygon points="36.576,70.626 36.576,71.626 35.776,71.626 35.776,74.726 36.576,74.726 36.576,80.526 35.776,80.526 35.776,83.626 36.576,83.626 36.576,84.626 50.576,84.626 50.576,83.626 51.376,83.626 51.376,80.526 50.576,80.526 50.576,74.726 51.376,74.726 51.376,71.626 50.576,71.626 50.576,70.626" style="fill:none;stroke-width:0.050000mm;stroke:black"/>
<polygon points="17.526,70.626 17.526,71.626 16.725,71.626 16.725,74.726 17.526,74.726 17.526,80.526 16.725,80.526 16.725,83.626 17.526,83.626 17.526,84.626 31.526,84.626 31.526,83.626 32.324,83.626 32.324,80.526 31.526,80.526 31.526,74.726 32.324,74.726 32.324,71.626 31.526,71.626 31.526,70.626" style="fill:none;stroke-width:0.050000mm;stroke:black"/>
<polygon points="55.626,51.576 55.626,52.576 54.826,52.576 54.826,55.676 55.626,55.676 55.626,61.476 54.826,61.476 54.826,64.576 55.626,64.576 55.626,65.576 69.626,65.576 69.626,64.576 70.426,64.576 70.426,61.476 69.626,61.476 69.626,55.676 70.426,55.676 70.426,52.576 69.626,52.576 69.626,51.576" style="fill:none;stroke-width:0.050000mm;stroke:black"/>
<polygon points="36.576,51.576 36.576,52.576 35.776,52.576 35.776,55.676 36.576,55.676 36.576,61.476 35.776,61.476 35.776,64.576 36.576,64.576 36.576,65.576 50.576,65.576 50.576,64.576 51.376,64.576 51.376,61.476 50.576,61.476 50.576,55.676 51.376,55.676 51.376,52.576 50.576,52.576 50.576,51.576" style="fill:none;stroke-width:0.050000mm;stroke:black"/>
<polygon points="17.526,51.576 17.526,52.576 16.725,52.576 16.725,55.676 17.526,55.676 17.526,61.476 16.725,61.476 16.725,64.576 17.526,64.576 17.526,65.576 31.526,65.576 31.526,64.576 32.324,64.576 32.324,61.476 31.526,61.476 31.526,55.676 32.324,55.676 32.324,52.576 31.526,52.576 31.526,51.576" style="fill:none;stroke-width:0.050000mm;stroke:black"/>
<polygon points="55.626,32.526 55.626,33.526 54.826,33.526 54.826,36.626 55.626,36.626 55.626,42.426 54.826,42.426 54.826,45.526 55.626,45.526 55.626,46.526 69.626,46.526 69.626,45.526 70.426,45.526 70.426,42.426 69.626,42.426 69.626,36.626 70.426,36.626 70.426,33.526 69.626,33.526 69.626,32.526" style="fill:none;stroke-width:0.050000mm;stroke:black"/>
<polygon points="36.576,32.526 36.576,33.526 35.776,33.526 35.776,36.626 36.576,36.626 36.576,42.426 35.776,42.426 35.776,45.526 36.576,45.526 36.576,46.526 50.576,46.526 50.576,45.526 51.376,45.526 51.376,42.426 50.576,42.426 50.576,36.626 51.376,36.626 51.376,33.526 50.576,33.526 50.576,32.526" style="fill:none;stroke-width:0.050000mm;stroke:black"/>
<polygon points="17.526,32.526 17.526,33.526 16.725,33.526 16.725,36.626 17.526,36.626 17.526,42.426 16.725,42.426 16.725,45.526 17.526,45.526 17.526,46.526 31.526,46.526 31.526,45.526 32.324,45.526 32.324,42.426 31.526,42.426 31.526,36.626 32.324,36.626 32.324,33.526 31.526,33.526 31.526,32.526" style="fill:none;stroke-width:0.050000mm;stroke:black"/>
<polygon points="9.537,8.574 9.119,8.787 8.787,9.119 8.574,9.537 8.501,10.001 8.574,10.464 8.787,10.882 9.119,11.214 9.537,11.427 10.001,11.501 10.464,11.427 10.882,11.214 11.214,10.882 11.427,10.464 11.501,10.001 11.427,9.537 11.214,9.119 10.882,8.787 10.464,8.574 10.001,8.501" style="fill:none;stroke-width:0.050000mm;stroke:black"/>
<polygon points="76.688,8.574 76.270,8.787 75.938,9.119 75.725,9.537 75.652,10.001 75.725,10.464 75.938,10.882 76.270,11.214 76.688,11.427 77.152,11.501 77.615,11.427 78.033,11.214 78.365,10.882 78.578,10.464 78.652,10.001 78.578,9.537 78.365,9.119 78.033,8.787 77.615,8.574 77.152,8.501" style="fill:none;stroke-width:0.050000mm;stroke:black"/>
</svg>
