  0
SECTION
  2
HEADER
  9
$ACADVER
  1
AC1009
  9
$EXTMIN
 10
0.0
 20
0.0
 30
0.0
  9
$EXTMAX
 10
1000.0
 20
1000.0
 30
0.0
  9
$FILLMODE
 70
 0
  9
$SPLFRAME
 70
 1
  0
ENDSEC
  0
SECTION
  2
TABLES
  0
TABLE
  2
LAYER
 70
1
  0
LAYER
  2
0
 70
     0
 62
     7
  6
CONTINUOUS
  0
ENDTAB
  0
ENDSEC
  0
SECTION
  2
ENTITIES
  0
LINE
  8
0
 62
     0
 10
89.2457
 20
96.5659
 30
0.0
 11
89.4814
 21
96.5563
 31
0.0
  0
LINE
  8
0
 62
     0
 10
89.4814
 20
96.5563
 30
0.0
 11
89.716
 21
96.5302
 31
0.0
  0
LINE
  8
0
 62
     0
 10
89.716
 20
96.5302
 30
0.0
 11
89.946
 21
96.4833
 31
0.0
  0
LINE
  8
0
 62
     0
 10
89.946
 20
96.4833
 30
0.0
 11
90.1732
 21
96.4198
 31
0.0
  0
LINE
  8
0
 62
     0
 10
90.1732
 20
96.4198
 30
0.0
 11
90.3951
 21
96.3373
 31
0.0
  0
LINE
  8
0
 62
     0
 10
90.3951
 20
96.3373
 30
0.0
 11
90.6074
 21
96.2395
 31
0.0
  0
LINE
  8
0
 62
     0
 10
90.6074
 20
96.2395
 30
0.0
 11
90.8142
 21
96.1238
 31
0.0
  0
LINE
  8
0
 62
     0
 10
90.8142
 20
96.1238
 30
0.0
 11
91.0096
 21
95.994
 31
0.0
  0
LINE
  8
0
 62
     0
 10
91.0096
 20
95.994
 30
0.0
 11
91.1945
 21
95.848
 31
0.0
  0
LINE
  8
0
 62
     0
 10
91.1945
 20
95.848
 30
0.0
 11
91.368
 21
95.6882
 31
0.0
  0
LINE
  8
0
 62
     0
 10
91.368
 20
95.6882
 30
0.0
 11
91.5278
 21
95.5146
 31
0.0
  0
LINE
  8
0
 62
     0
 10
91.5278
 20
95.5146
 30
0.0
 11
91.6739
 21
95.3301
 31
0.0
  0
LINE
  8
0
 62
     0
 10
91.6739
 20
95.3301
 30
0.0
 11
91.8034
 21
95.1343
 31
0.0
  0
LINE
  8
0
 62
     0
 10
91.8034
 20
95.1343
 30
0.0
 11
91.9194
 21
94.9276
 31
0.0
  0
LINE
  8
0
 62
     0
 10
91.9194
 20
94.9276
 30
0.0
 11
92.0171
 21
94.7138
 31
0.0
  0
LINE
  8
0
 62
     0
 10
92.0171
 20
94.7138
 30
0.0
 11
92.0997
 21
94.4933
 31
0.0
  0
LINE
  8
0
 62
     0
 10
92.0997
 20
94.4933
 30
0.0
 11
92.1632
 21
94.2661
 31
0.0
  0
LINE
  8
0
 62
     0
 10
92.1632
 20
94.2661
 30
0.0
 11
92.2101
 21
94.0361
 31
0.0
  0
LINE
  8
0
 62
     0
 10
92.2101
 20
94.0361
 30
0.0
 11
92.2362
 21
93.8018
 31
0.0
  0
LINE
  8
0
 62
     0
 10
92.2362
 20
93.8018
 30
0.0
 11
92.2457
 21
93.5662
 31
0.0
  0
LINE
  8
0
 62
     0
 10
92.2457
 20
93.5662
 30
0.0
 11
92.2457
 21
3.36517
 31
0.0
  0
LINE
  8
0
 62
     0
 10
92.2457
 20
3.36517
 30
0.0
 11
92.2362
 21
3.12952
 31
0.0
  0
LINE
  8
0
 62
     0
 10
92.2362
 20
3.12952
 30
0.0
 11
92.2101
 21
2.89526
 31
0.0
  0
LINE
  8
0
 62
     0
 10
92.2101
 20
2.89526
 30
0.0
 11
92.1632
 21
2.66513
 31
0.0
  0
LINE
  8
0
 62
     0
 10
92.1632
 20
2.66513
 30
0.0
 11
92.0997
 21
2.43775
 31
0.0
  0
LINE
  8
0
 62
     0
 10
92.0997
 20
2.43775
 30
0.0
 11
92.0171
 21
2.21726
 31
0.0
  0
LINE
  8
0
 62
     0
 10
92.0171
 20
2.21726
 30
0.0
 11
91.9194
 21
2.00367
 31
0.0
  0
LINE
  8
0
 62
     0
 10
91.9194
 20
2.00367
 30
0.0
 11
91.8034
 21
1.79696
 31
0.0
  0
LINE
  8
0
 62
     0
 10
91.8034
 20
1.79696
 30
0.0
 11
91.6739
 21
1.60128
 31
0.0
  0
LINE
  8
0
 62
     0
 10
91.6739
 20
1.60128
 30
0.0
 11
91.5278
 21
1.41662
 31
0.0
  0
LINE
  8
0
 62
     0
 10
91.5278
 20
1.41662
 30
0.0
 11
91.368
 21
1.24299
 31
0.0
  0
LINE
  8
0
 62
     0
 10
91.368
 20
1.24299
 30
0.0
 11
91.1945
 21
1.08314
 31
0.0
  0
LINE
  8
0
 62
     0
 10
91.1945
 20
1.08314
 30
0.0
 11
91.0096
 21
0.937066
 31
0.0
  0
LINE
  8
0
 62
     0
 10
91.0096
 20
0.937066
 30
0.0
 11
90.8142
 21
0.80753
 31
0.0
  0
LINE
  8
0
 62
     0
 10
90.8142
 20
0.80753
 30
0.0
 11
90.6074
 21
0.691776
 31
0.0
  0
LINE
  8
0
 62
     0
 10
90.6074
 20
0.691776
 30
0.0
 11
90.3951
 21
0.593933
 31
0.0
  0
LINE
  8
0
 62
     0
 10
90.3951
 20
0.593933
 30
0.0
 11
90.1732
 21
0.511253
 31
0.0
  0
LINE
  8
0
 62
     0
 10
90.1732
 20
0.511253
 30
0.0
 11
89.946
 21
0.447862
 31
0.0
  0
LINE
  8
0
 62
     0
 10
89.946
 20
0.447862
 30
0.0
 11
89.716
 21
0.40101
 31
0.0
  0
LINE
  8
0
 62
     0
 10
89.716
 20
0.40101
 30
0.0
 11
89.4814
 21
0.374826
 31
0.0
  0
LINE
  8
0
 62
     0
 10
89.4814
 20
0.374826
 30
0.0
 11
89.2457
 21
0.365181
 31
0.0
  0
LINE
  8
0
 62
     0
 10
89.2457
 20
0.365181
 30
0.0
 11
3.09507
 21
0.365181
 31
0.0
  0
LINE
  8
0
 62
     0
 10
3.09507
 20
0.365181
 30
0.0
 11
2.85943
 21
0.374826
 31
0.0
  0
LINE
  8
0
 62
     0
 10
2.85943
 20
0.374826
 30
0.0
 11
2.62516
 21
0.40101
 31
0.0
  0
LINE
  8
0
 62
     0
 10
2.62516
 20
0.40101
 30
0.0
 11
2.39503
 21
0.447862
 31
0.0
  0
LINE
  8
0
 62
     0
 10
2.39503
 20
0.447862
 30
0.0
 11
2.16765
 21
0.511253
 31
0.0
  0
LINE
  8
0
 62
     0
 10
2.16765
 20
0.511253
 30
0.0
 11
1.94717
 21
0.593933
 31
0.0
  0
LINE
  8
0
 62
     0
 10
1.94717
 20
0.593933
 30
0.0
 11
1.73357
 21
0.691776
 31
0.0
  0
LINE
  8
0
 62
     0
 10
1.73357
 20
0.691776
 30
0.0
 11
1.52687
 21
0.80753
 31
0.0
  0
LINE
  8
0
 62
     0
 10
1.52687
 20
0.80753
 30
0.0
 11
1.33119
 21
0.937066
 31
0.0
  0
LINE
  8
0
 62
     0
 10
1.33119
 20
0.937066
 30
0.0
 11
1.14653
 21
1.08314
 31
0.0
  0
LINE
  8
0
 62
     0
 10
1.14653
 20
1.08314
 30
0.0
 11
0.972894
 21
1.24299
 31
0.0
  0
LINE
  8
0
 62
     0
 10
0.972894
 20
1.24299
 30
0.0
 11
0.813043
 21
1.41662
 31
0.0
  0
LINE
  8
0
 62
     0
 10
0.813043
 20
1.41662
 30
0.0
 11
0.666972
 21
1.60128
 31
0.0
  0
LINE
  8
0
 62
     0
 10
0.666972
 20
1.60128
 30
0.0
 11
0.537436
 21
1.79696
 31
0.0
  0
LINE
  8
0
 62
     0
 10
0.537436
 20
1.79696
 30
0.0
 11
0.421679
 21
2.00367
 31
0.0
  0
LINE
  8
0
 62
     0
 10
0.421679
 20
2.00367
 30
0.0
 11
0.323839
 21
2.21726
 31
0.0
  0
LINE
  8
0
 62
     0
 10
0.323839
 20
2.21726
 30
0.0
 11
0.241157
 21
2.43775
 31
0.0
  0
LINE
  8
0
 62
     0
 10
0.241157
 20
2.43775
 30
0.0
 11
0.177767
 21
2.66513
 31
0.0
  0
LINE
  8
0
 62
     0
 10
0.177767
 20
2.66513
 30
0.0
 11
0.130914
 21
2.89526
 31
0.0
  0
LINE
  8
0
 62
     0
 10
0.130914
 20
2.89526
 30
0.0
 11
0.104731
 21
3.12952
 31
0.0
  0
LINE
  8
0
 62
     0
 10
0.104731
 20
3.12952
 30
0.0
 11
0.0950846
 21
3.36517
 31
0.0
  0
LINE
  8
0
 62
     0
 10
0.0950846
 20
3.36517
 30
0.0
 11
0.0950846
 21
93.5662
 31
0.0
  0
LINE
  8
0
 62
     0
 10
0.0950846
 20
93.5662
 30
0.0
 11
0.104731
 21
93.8018
 31
0.0
  0
LINE
  8
0
 62
     0
 10
0.104731
 20
93.8018
 30
0.0
 11
0.130914
 21
94.0361
 31
0.0
  0
LINE
  8
0
 62
     0
 10
0.130914
 20
94.0361
 30
0.0
 11
0.177767
 21
94.2661
 31
0.0
  0
LINE
  8
0
 62
     0
 10
0.177767
 20
94.2661
 30
0.0
 11
0.241157
 21
94.4933
 31
0.0
  0
LINE
  8
0
 62
     0
 10
0.241157
 20
94.4933
 30
0.0
 11
0.323839
 21
94.7138
 31
0.0
  0
LINE
  8
0
 62
     0
 10
0.323839
 20
94.7138
 30
0.0
 11
0.421679
 21
94.9276
 31
0.0
  0
LINE
  8
0
 62
     0
 10
0.421679
 20
94.9276
 30
0.0
 11
0.537436
 21
95.1343
 31
0.0
  0
LINE
  8
0
 62
     0
 10
0.537436
 20
95.1343
 30
0.0
 11
0.666972
 21
95.3301
 31
0.0
  0
LINE
  8
0
 62
     0
 10
0.666972
 20
95.3301
 30
0.0
 11
0.813043
 21
95.5146
 31
0.0
  0
LINE
  8
0
 62
     0
 10
0.813043
 20
95.5146
 30
0.0
 11
0.972894
 21
95.6882
 31
0.0
  0
LINE
  8
0
 62
     0
 10
0.972894
 20
95.6882
 30
0.0
 11
1.14653
 21
95.848
 31
0.0
  0
LINE
  8
0
 62
     0
 10
1.14653
 20
95.848
 30
0.0
 11
1.33119
 21
95.994
 31
0.0
  0
LINE
  8
0
 62
     0
 10
1.33119
 20
95.994
 30
0.0
 11
1.52687
 21
96.1238
 31
0.0
  0
LINE
  8
0
 62
     0
 10
1.52687
 20
96.1238
 30
0.0
 11
1.73357
 21
96.2395
 31
0.0
  0
LINE
  8
0
 62
     0
 10
1.73357
 20
96.2395
 30
0.0
 11
1.94717
 21
96.3373
 31
0.0
  0
LINE
  8
0
 62
     0
 10
1.94717
 20
96.3373
 30
0.0
 11
2.16765
 21
96.4198
 31
0.0
  0
LINE
  8
0
 62
     0
 10
2.16765
 20
96.4198
 30
0.0
 11
2.39503
 21
96.4833
 31
0.0
  0
LINE
  8
0
 62
     0
 10
2.39503
 20
96.4833
 30
0.0
 11
2.62516
 21
96.5302
 31
0.0
  0
LINE
  8
0
 62
     0
 10
2.62516
 20
96.5302
 30
0.0
 11
2.85943
 21
96.5563
 31
0.0
  0
LINE
  8
0
 62
     0
 10
2.85943
 20
96.5563
 30
0.0
 11
3.09507
 21
96.5659
 31
0.0
  0
LINE
  8
0
 62
     0
 10
3.09507
 20
96.5659
 30
0.0
 11
89.2457
 21
96.5659
 31
0.0
  0
LINE
  8
0
 62
     0
 10
4.63158
 20
6.79097
 30
0.0
 11
4.21404
 21
6.57874
 31
0.0
  0
LINE
  8
0
 62
     0
 10
4.21404
 20
6.57874
 30
0.0
 11
3.88193
 21
6.24664
 31
0.0
  0
LINE
  8
0
 62
     0
 10
3.88193
 20
6.24664
 30
0.0
 11
3.66832
 21
5.82909
 31
0.0
  0
LINE
  8
0
 62
     0
 10
3.66832
 20
5.82909
 30
0.0
 11
3.5953
 21
5.36469
 31
0.0
  0
LINE
  8
0
 62
     0
 10
3.5953
 20
5.36469
 30
0.0
 11
3.66832
 21
4.90167
 31
0.0
  0
LINE
  8
0
 62
     0
 10
3.66832
 20
4.90167
 30
0.0
 11
3.88193
 21
4.48412
 31
0.0
  0
LINE
  8
0
 62
     0
 10
3.88193
 20
4.48412
 30
0.0
 11
4.21404
 21
4.15202
 31
0.0
  0
LINE
  8
0
 62
     0
 10
4.21404
 20
4.15202
 30
0.0
 11
4.63158
 21
3.93845
 31
0.0
  0
LINE
  8
0
 62
     0
 10
4.63158
 20
3.93845
 30
0.0
 11
5.09598
 21
3.86401
 31
0.0
  0
LINE
  8
0
 62
     0
 10
5.09598
 20
3.86401
 30
0.0
 11
5.559
 21
3.93845
 31
0.0
  0
LINE
  8
0
 62
     0
 10
5.559
 20
3.93845
 30
0.0
 11
5.97655
 21
4.15202
 31
0.0
  0
LINE
  8
0
 62
     0
 10
5.97655
 20
4.15202
 30
0.0
 11
6.30865
 21
4.48412
 31
0.0
  0
LINE
  8
0
 62
     0
 10
6.30865
 20
4.48412
 30
0.0
 11
6.52089
 21
4.90167
 31
0.0
  0
LINE
  8
0
 62
     0
 10
6.52089
 20
4.90167
 30
0.0
 11
6.59529
 21
5.36469
 31
0.0
  0
LINE
  8
0
 62
     0
 10
6.59529
 20
5.36469
 30
0.0
 11
6.52089
 21
5.82909
 31
0.0
  0
LINE
  8
0
 62
     0
 10
6.52089
 20
5.82909
 30
0.0
 11
6.30865
 21
6.24664
 31
0.0
  0
LINE
  8
0
 62
     0
 10
6.30865
 20
6.24664
 30
0.0
 11
5.97655
 21
6.57874
 31
0.0
  0
LINE
  8
0
 62
     0
 10
5.97655
 20
6.57874
 30
0.0
 11
5.559
 21
6.79097
 31
0.0
  0
LINE
  8
0
 62
     0
 10
5.559
 20
6.79097
 30
0.0
 11
5.09598
 21
6.864
 31
0.0
  0
LINE
  8
0
 62
     0
 10
5.09598
 20
6.864
 30
0.0
 11
4.63158
 21
6.79097
 31
0.0
  0
LINE
  8
0
 62
     0
 10
86.7819
 20
6.79097
 30
0.0
 11
86.3646
 21
6.57874
 31
0.0
  0
LINE
  8
0
 62
     0
 10
86.3646
 20
6.57874
 30
0.0
 11
86.0323
 21
6.24664
 31
0.0
  0
LINE
  8
0
 62
     0
 10
86.0323
 20
6.24664
 30
0.0
 11
85.8203
 21
5.82909
 31
0.0
  0
LINE
  8
0
 62
     0
 10
85.8203
 20
5.82909
 30
0.0
 11
85.7472
 21
5.36469
 31
0.0
  0
LINE
  8
0
 62
     0
 10
85.7472
 20
5.36469
 30
0.0
 11
85.8203
 21
4.90167
 31
0.0
  0
LINE
  8
0
 62
     0
 10
85.8203
 20
4.90167
 30
0.0
 11
86.0323
 21
4.48412
 31
0.0
  0
LINE
  8
0
 62
     0
 10
86.0323
 20
4.48412
 30
0.0
 11
86.3646
 21
4.15202
 31
0.0
  0
LINE
  8
0
 62
     0
 10
86.3646
 20
4.15202
 30
0.0
 11
86.7819
 21
3.93845
 31
0.0
  0
LINE
  8
0
 62
     0
 10
86.7819
 20
3.93845
 30
0.0
 11
87.2465
 21
3.86401
 31
0.0
  0
LINE
  8
0
 62
     0
 10
87.2465
 20
3.86401
 30
0.0
 11
87.7094
 21
3.93845
 31
0.0
  0
LINE
  8
0
 62
     0
 10
87.7094
 20
3.93845
 30
0.0
 11
88.1271
 21
4.15202
 31
0.0
  0
LINE
  8
0
 62
     0
 10
88.1271
 20
4.15202
 30
0.0
 11
88.459
 21
4.48412
 31
0.0
  0
LINE
  8
0
 62
     0
 10
88.459
 20
4.48412
 30
0.0
 11
88.6725
 21
4.90167
 31
0.0
  0
LINE
  8
0
 62
     0
 10
88.6725
 20
4.90167
 30
0.0
 11
88.7469
 21
5.36469
 31
0.0
  0
LINE
  8
0
 62
     0
 10
88.7469
 20
5.36469
 30
0.0
 11
88.6725
 21
5.82909
 31
0.0
  0
LINE
  8
0
 62
     0
 10
88.6725
 20
5.82909
 30
0.0
 11
88.459
 21
6.24664
 31
0.0
  0
LINE
  8
0
 62
     0
 10
88.459
 20
6.24664
 30
0.0
 11
88.1271
 21
6.57874
 31
0.0
  0
LINE
  8
0
 62
     0
 10
88.1271
 20
6.57874
 30
0.0
 11
87.7094
 21
6.79097
 31
0.0
  0
LINE
  8
0
 62
     0
 10
87.7094
 20
6.79097
 30
0.0
 11
87.2465
 21
6.864
 31
0.0
  0
LINE
  8
0
 62
     0
 10
87.2465
 20
6.864
 30
0.0
 11
86.7819
 21
6.79097
 31
0.0
  0
LINE
  8
0
 62
     0
 10
4.63158
 20
92.9929
 30
0.0
 11
4.21404
 21
92.7791
 31
0.0
  0
LINE
  8
0
 62
     0
 10
4.21404
 20
92.7791
 30
0.0
 11
3.88193
 21
92.4472
 31
0.0
  0
LINE
  8
0
 62
     0
 10
3.88193
 20
92.4472
 30
0.0
 11
3.66832
 21
92.0295
 31
0.0
  0
LINE
  8
0
 62
     0
 10
3.66832
 20
92.0295
 30
0.0
 11
3.5953
 21
91.5652
 31
0.0
  0
LINE
  8
0
 62
     0
 10
3.5953
 20
91.5652
 30
0.0
 11
3.66832
 21
91.102
 31
0.0
  0
LINE
  8
0
 62
     0
 10
3.66832
 20
91.102
 30
0.0
 11
3.88193
 21
90.6847
 31
0.0
  0
LINE
  8
0
 62
     0
 10
3.88193
 20
90.6847
 30
0.0
 11
4.21404
 21
90.3524
 31
0.0
  0
LINE
  8
0
 62
     0
 10
4.21404
 20
90.3524
 30
0.0
 11
4.63158
 21
90.1404
 31
0.0
  0
LINE
  8
0
 62
     0
 10
4.63158
 20
90.1404
 30
0.0
 11
5.09598
 21
90.0659
 31
0.0
  0
LINE
  8
0
 62
     0
 10
5.09598
 20
90.0659
 30
0.0
 11
5.559
 21
90.1404
 31
0.0
  0
LINE
  8
0
 62
     0
 10
5.559
 20
90.1404
 30
0.0
 11
5.97655
 21
90.3524
 31
0.0
  0
LINE
  8
0
 62
     0
 10
5.97655
 20
90.3524
 30
0.0
 11
6.30865
 21
90.6847
 31
0.0
  0
LINE
  8
0
 62
     0
 10
6.30865
 20
90.6847
 30
0.0
 11
6.52089
 21
91.102
 31
0.0
  0
LINE
  8
0
 62
     0
 10
6.52089
 20
91.102
 30
0.0
 11
6.59529
 21
91.5652
 31
0.0
  0
LINE
  8
0
 62
     0
 10
6.59529
 20
91.5652
 30
0.0
 11
6.52089
 21
92.0295
 31
0.0
  0
LINE
  8
0
 62
     0
 10
6.52089
 20
92.0295
 30
0.0
 11
6.30865
 21
92.4472
 31
0.0
  0
LINE
  8
0
 62
     0
 10
6.30865
 20
92.4472
 30
0.0
 11
5.97655
 21
92.7791
 31
0.0
  0
LINE
  8
0
 62
     0
 10
5.97655
 20
92.7791
 30
0.0
 11
5.559
 21
92.9929
 31
0.0
  0
LINE
  8
0
 62
     0
 10
5.559
 20
92.9929
 30
0.0
 11
5.09598
 21
93.0659
 31
0.0
  0
LINE
  8
0
 62
     0
 10
5.09598
 20
93.0659
 30
0.0
 11
4.63158
 21
92.9929
 31
0.0
  0
LINE
  8
0
 62
     0
 10
86.7819
 20
92.9929
 30
0.0
 11
86.3646
 21
92.7791
 31
0.0
  0
LINE
  8
0
 62
     0
 10
86.3646
 20
92.7791
 30
0.0
 11
86.0323
 21
92.4472
 31
0.0
  0
LINE
  8
0
 62
     0
 10
86.0323
 20
92.4472
 30
0.0
 11
85.8203
 21
92.0295
 31
0.0
  0
LINE
  8
0
 62
     0
 10
85.8203
 20
92.0295
 30
0.0
 11
85.7472
 21
91.5652
 31
0.0
  0
LINE
  8
0
 62
     0
 10
85.7472
 20
91.5652
 30
0.0
 11
85.8203
 21
91.102
 31
0.0
  0
LINE
  8
0
 62
     0
 10
85.8203
 20
91.102
 30
0.0
 11
86.0323
 21
90.6847
 31
0.0
  0
LINE
  8
0
 62
     0
 10
86.0323
 20
90.6847
 30
0.0
 11
86.3646
 21
90.3524
 31
0.0
  0
LINE
  8
0
 62
     0
 10
86.3646
 20
90.3524
 30
0.0
 11
86.7819
 21
90.1404
 31
0.0
  0
LINE
  8
0
 62
     0
 10
86.7819
 20
90.1404
 30
0.0
 11
87.2465
 21
90.0659
 31
0.0
  0
LINE
  8
0
 62
     0
 10
87.2465
 20
90.0659
 30
0.0
 11
87.7094
 21
90.1404
 31
0.0
  0
LINE
  8
0
 62
     0
 10
87.7094
 20
90.1404
 30
0.0
 11
88.1271
 21
90.3524
 31
0.0
  0
LINE
  8
0
 62
     0
 10
88.1271
 20
90.3524
 30
0.0
 11
88.459
 21
90.6847
 31
0.0
  0
LINE
  8
0
 62
     0
 10
88.459
 20
90.6847
 30
0.0
 11
88.6725
 21
91.102
 31
0.0
  0
LINE
  8
0
 62
     0
 10
88.6725
 20
91.102
 30
0.0
 11
88.7469
 21
91.5652
 31
0.0
  0
LINE
  8
0
 62
     0
 10
88.7469
 20
91.5652
 30
0.0
 11
88.6725
 21
92.0295
 31
0.0
  0
LINE
  8
0
 62
     0
 10
88.6725
 20
92.0295
 30
0.0
 11
88.459
 21
92.4472
 31
0.0
  0
LINE
  8
0
 62
     0
 10
88.459
 20
92.4472
 30
0.0
 11
88.1271
 21
92.7791
 31
0.0
  0
LINE
  8
0
 62
     0
 10
88.1271
 20
92.7791
 30
0.0
 11
87.7094
 21
92.9929
 31
0.0
  0
LINE
  8
0
 62
     0
 10
87.7094
 20
92.9929
 30
0.0
 11
87.2465
 21
93.0659
 31
0.0
  0
LINE
  8
0
 62
     0
 10
87.2465
 20
93.0659
 30
0.0
 11
86.7819
 21
92.9929
 31
0.0
  0
ENDSEC
  0
EOF
