<?xml version="1.0"?>
<!-- Generated by SVGo -->
<svg width="102.152mm" height="106.202mm"
     viewBox="0.000 0.000 102.152 106.202"
     xmlns="http://www.w3.org/2000/svg" 
     xmlns:xlink="http://www.w3.org/1999/xlink">
<polygon points="94.152,5.001 94.387,5.010 94.621,5.037 94.852,5.083 95.079,5.147 95.300,5.229 95.513,5.327 95.719,5.443 95.915,5.573 96.100,5.719 96.273,5.879 96.433,6.052 96.579,6.237 96.709,6.433 96.825,6.639 96.923,6.852 97.005,7.073 97.069,7.300 97.115,7.531 97.142,7.765 97.152,8.001 97.152,98.202 97.142,98.437 97.115,98.671 97.069,98.902 97.005,99.129 96.923,99.350 96.825,99.563 96.709,99.769 96.579,99.965 96.433,100.150 96.273,100.323 96.100,100.483 95.915,100.629 95.719,100.759 95.513,100.875 95.300,100.973 95.079,101.055 94.852,101.119 94.621,101.165 94.387,101.192 94.151,101.202 8.001,101.202 7.765,101.192 7.531,101.165 7.300,101.119 7.073,101.055 6.852,100.973 6.639,100.875 6.433,100.759 6.237,100.629 6.052,100.483 5.879,100.323 5.719,100.150 5.573,99.965 5.443,99.769 5.327,99.563 5.229,99.350 5.147,99.129 5.083,98.902 5.037,98.671 5.010,98.437 5.000,98.201 5.001,8.001 5.010,7.765 5.037,7.531 5.083,7.300 5.147,7.073 5.229,6.852 5.327,6.639 5.443,6.433 5.573,6.237 5.719,6.052 5.879,5.879 6.052,5.719 6.237,5.573 6.433,5.443 6.639,5.327 6.852,5.229 7.073,5.147 7.300,5.083 7.531,5.037 7.765,5.010 8.001,5.000" style="fill:none;stroke-width:0.050000mm;stroke:black"/>
<polygon points="9.537,94.775 9.119,94.988 8.787,95.320 8.574,95.738 8.501,96.202 8.574,96.665 8.787,97.083 9.119,97.415 9.537,97.628 10.001,97.702 10.464,97.628 10.882,97.415 11.214,97.083 11.427,96.665 11.501,96.202 11.427,95.738 11.214,95.320 10.882,94.988 10.464,94.775 10.001,94.702" style="fill:none;stroke-width:0.050000mm;stroke:black"/>
<polygon points="91.688,94.775 91.270,94.988 90.938,95.320 90.725,95.738 90.652,96.202 90.725,96.665 90.938,97.083 91.270,97.415 91.688,97.628 92.152,97.702 92.615,97.628 93.033,97.415 93.365,97.083 93.578,96.665 93.652,96.202 93.578,95.738 93.365,95.320 93.033,94.988 92.615,94.775 92.152,94.702" style="fill:none;stroke-width:0.050000mm;stroke:black"/>
<polygon points="9.537,8.574 9.119,8.787 8.787,9.119 8.574,9.537 8.501,10.001 8.574,10.464 8.787,10.882 9.119,11.214 9.537,11.427 10.001,11.501 10.464,11.427 10.882,11.214 11.214,10.882 11.427,10.464 11.501,10.001 11.427,9.537 11.214,9.119 10.882,8.787 10.464,8.574 10.001,8.501" style="fill:none;stroke-width:0.050000mm;stroke:black"/>
<polygon points="91.688,8.574 91.270,8.787 90.938,9.119 90.725,9.537 90.652,10.001 90.725,10.464 90.938,10.882 91.270,11.214 91.688,11.427 92.152,11.501 92.615,11.427 93.033,11.214 93.365,10.882 93.578,10.464 93.652,10.001 93.578,9.537 93.365,9.119 93.033,8.787 92.615,8.574 92.152,8.501" style="fill:none;stroke-width:0.050000mm;stroke:black"/>
</svg>
