<?xml version="1.0" encoding="UTF-8" standalone="no"?>
<svg
   xmlns:dc="http://purl.org/dc/elements/1.1/"
   xmlns:cc="http://creativecommons.org/ns#"
   xmlns:rdf="http://www.w3.org/1999/02/22-rdf-syntax-ns#"
   xmlns:svg="http://www.w3.org/2000/svg"
   xmlns="http://www.w3.org/2000/svg"
   xmlns:sodipodi="http://sodipodi.sourceforge.net/DTD/sodipodi-0.dtd"
   xmlns:inkscape="http://www.inkscape.org/namespaces/inkscape"
   width="102.152mm"
   height="106.202mm"
   viewBox="0.000 0.000 102.152 106.202"
   version="1.1"
   id="svg36"
   sodipodi:docname="mmpad_plate_layout.svg"
   inkscape:version="1.0.1 (3bc2e813f5, 2020-09-07)">
  <metadata
     id="metadata42">
    <rdf:RDF>
      <cc:Work
         rdf:about="">
        <dc:format>image/svg+xml</dc:format>
        <dc:type
           rdf:resource="http://purl.org/dc/dcmitype/StillImage" />
        <dc:title></dc:title>
      </cc:Work>
    </rdf:RDF>
  </metadata>
  <defs
     id="defs40" />
  <sodipodi:namedview
     pagecolor="#ffffff"
     bordercolor="#666666"
     borderopacity="1"
     objecttolerance="10"
     gridtolerance="10"
     guidetolerance="10"
     inkscape:pageopacity="0"
     inkscape:pageshadow="2"
     inkscape:window-width="1880"
     inkscape:window-height="1000"
     id="namedview38"
     showgrid="false"
     inkscape:zoom="0.76454756"
     inkscape:cx="306.53109"
     inkscape:cy="295.80439"
     inkscape:window-x="20"
     inkscape:window-y="900"
     inkscape:window-maximized="0"
     inkscape:current-layer="layer3"
     inkscape:object-paths="true" />
  <g
     inkscape:groupmode="layer"
     id="layer2"
     inkscape:label="BottomPlate"
     sodipodi:insensitive="true">
    <g
       id="g944">
      <polygon
         points="95.915,5.573 96.1,5.719 96.273,5.879 96.433,6.052 96.579,6.237 96.709,6.433 96.825,6.639 96.923,6.852 97.005,7.073 97.069,7.3 97.115,7.531 97.142,7.765 97.152,8.001 97.152,98.202 97.142,98.437 97.115,98.671 97.069,98.902 97.005,99.129 96.923,99.35 96.825,99.563 96.709,99.769 96.579,99.965 96.433,100.15 96.273,100.323 96.1,100.483 95.915,100.629 95.719,100.759 95.513,100.875 95.3,100.973 95.079,101.055 94.852,101.119 94.621,101.165 94.387,101.192 94.151,101.202 8.001,101.202 7.765,101.192 7.531,101.165 7.3,101.119 7.073,101.055 6.852,100.973 6.639,100.875 6.433,100.759 6.237,100.629 6.052,100.483 5.879,100.323 5.719,100.15 5.573,99.965 5.443,99.769 5.327,99.563 5.229,99.35 5.147,99.129 5.083,98.902 5.037,98.671 5.01,98.437 5,98.201 5.001,8.001 5.01,7.765 5.037,7.531 5.083,7.3 5.147,7.073 5.229,6.852 5.327,6.639 5.443,6.433 5.573,6.237 5.719,6.052 5.879,5.879 6.052,5.719 6.237,5.573 6.433,5.443 6.639,5.327 6.852,5.229 7.073,5.147 7.3,5.083 7.531,5.037 7.765,5.01 8.001,5 94.152,5.001 94.387,5.01 94.621,5.037 94.852,5.083 95.079,5.147 95.3,5.229 95.513,5.327 95.719,5.443 "
         style="fill:none;stroke:#000000;stroke-width:0.05mm"
         id="polygon921" />
      <polygon
         points="9.537,97.628 10.001,97.702 10.464,97.628 10.882,97.415 11.214,97.083 11.427,96.665 11.501,96.202 11.427,95.738 11.214,95.32 10.882,94.988 10.464,94.775 10.001,94.702 9.537,94.775 9.119,94.988 8.787,95.32 8.574,95.738 8.501,96.202 8.574,96.665 8.787,97.083 9.119,97.415 "
         style="fill:none;stroke:#000000;stroke-width:0.05mm"
         id="polygon923" />
      <polygon
         points="91.688,97.628 92.152,97.702 92.615,97.628 93.033,97.415 93.365,97.083 93.578,96.665 93.652,96.202 93.578,95.738 93.365,95.32 93.033,94.988 92.615,94.775 92.152,94.702 91.688,94.775 91.27,94.988 90.938,95.32 90.725,95.738 90.652,96.202 90.725,96.665 90.938,97.083 91.27,97.415 "
         style="fill:none;stroke:#000000;stroke-width:0.05mm"
         id="polygon925" />
      <polygon
         points="9.537,11.427 10.001,11.501 10.464,11.427 10.882,11.214 11.214,10.882 11.427,10.464 11.501,10.001 11.427,9.537 11.214,9.119 10.882,8.787 10.464,8.574 10.001,8.501 9.537,8.574 9.119,8.787 8.787,9.119 8.574,9.537 8.501,10.001 8.574,10.464 8.787,10.882 9.119,11.214 "
         style="fill:none;stroke:#000000;stroke-width:0.05mm"
         id="polygon927" />
      <polygon
         points="91.688,11.427 92.152,11.501 92.615,11.427 93.033,11.214 93.365,10.882 93.578,10.464 93.652,10.001 93.578,9.537 93.365,9.119 93.033,8.787 92.615,8.574 92.152,8.501 91.688,8.574 91.27,8.787 90.938,9.119 90.725,9.537 90.652,10.001 90.725,10.464 90.938,10.882 91.27,11.214 "
         style="fill:none;stroke:#000000;stroke-width:0.05mm"
         id="polygon929" />
    </g>
  </g>
  <g
     inkscape:groupmode="layer"
     id="layer3"
     inkscape:label="Component">
    <g
       id="g931"
       transform="rotate(90,25.912499,18.3375)"
       style="display:inline">
      <rect
         style="fill:#00ffff;stroke:#000000;stroke-width:0;stroke-miterlimit:4;stroke-dasharray:none"
         id="rect925"
         width="33"
         height="18"
         x="36.575001"
         y="14.525" />
      <rect
         style="fill:#cccccc;stroke:#000000;stroke-width:0;stroke-miterlimit:4;stroke-dasharray:none"
         id="rect927"
         width="22"
         height="10"
         x="14.575"
         y="18.525002" />
    </g>
  </g>
  <g
     inkscape:groupmode="layer"
     id="layer1"
     inkscape:label="TopPlate"
     sodipodi:insensitive="true">
    <polygon
       points="94.621,5.037 94.852,5.083 95.079,5.147 95.3,5.229 95.513,5.327 95.719,5.443 95.915,5.573 96.1,5.719 96.273,5.879 96.433,6.052 96.579,6.237 96.709,6.433 96.825,6.639 96.923,6.852 97.005,7.073 97.069,7.3 97.115,7.531 97.142,7.765 97.152,8.001 97.152,98.202 97.142,98.437 97.115,98.671 97.069,98.902 97.005,99.129 96.923,99.35 96.825,99.563 96.709,99.769 96.579,99.965 96.433,100.15 96.273,100.323 96.1,100.483 95.915,100.629 95.719,100.759 95.513,100.875 95.3,100.973 95.079,101.055 94.852,101.119 94.621,101.165 94.387,101.192 94.151,101.202 8.001,101.202 7.765,101.192 7.531,101.165 7.3,101.119 7.073,101.055 6.852,100.973 6.639,100.875 6.433,100.759 6.237,100.629 6.052,100.483 5.879,100.323 5.719,100.15 5.573,99.965 5.443,99.769 5.327,99.563 5.229,99.35 5.147,99.129 5.083,98.902 5.037,98.671 5.01,98.437 5,98.201 5.001,8.001 5.01,7.765 5.037,7.531 5.083,7.3 5.147,7.073 5.229,6.852 5.327,6.639 5.443,6.433 5.573,6.237 5.719,6.052 5.879,5.879 6.052,5.719 6.237,5.573 6.433,5.443 6.639,5.327 6.852,5.229 7.073,5.147 7.3,5.083 7.531,5.037 7.765,5.01 8.001,5 94.152,5.001 94.387,5.01 "
       style="fill:none;stroke:#000000;stroke-width:0.05mm"
       id="polygon2" />
    <polygon
       points="8.787,95.32 8.574,95.738 8.501,96.202 8.574,96.665 8.787,97.083 9.119,97.415 9.537,97.628 10.001,97.702 10.464,97.628 10.882,97.415 11.214,97.083 11.427,96.665 11.501,96.202 11.427,95.738 11.214,95.32 10.882,94.988 10.464,94.775 10.001,94.702 9.537,94.775 9.119,94.988 "
       style="fill:none;stroke:#000000;stroke-width:0.05mm"
       id="polygon4" />
    <polygon
       points="90.938,95.32 90.725,95.738 90.652,96.202 90.725,96.665 90.938,97.083 91.27,97.415 91.688,97.628 92.152,97.702 92.615,97.628 93.033,97.415 93.365,97.083 93.578,96.665 93.652,96.202 93.578,95.738 93.365,95.32 93.033,94.988 92.615,94.775 92.152,94.702 91.688,94.775 91.27,94.988 "
       style="fill:none;stroke:#000000;stroke-width:0.05mm"
       id="polygon6" />
    <polygon
       points="69.826,75.676 69.826,78.775 70.626,78.775 70.626,84.576 69.826,84.576 69.826,87.676 70.626,87.676 70.626,88.676 84.626,88.676 84.626,87.676 85.426,87.676 85.426,84.576 84.626,84.576 84.626,78.775 85.426,78.775 85.426,75.676 84.626,75.676 84.626,74.676 70.626,74.676 70.626,75.676 "
       style="fill:none;stroke:#000000;stroke-width:0.05mm"
       id="polygon8" />
    <polygon
       points="50.776,75.676 50.776,78.775 51.576,78.775 51.576,84.576 50.776,84.576 50.776,87.676 51.576,87.676 51.576,88.676 65.576,88.676 65.576,87.676 66.376,87.676 66.376,84.576 65.576,84.576 65.576,78.775 66.376,78.775 66.376,75.676 65.576,75.676 65.576,74.676 51.576,74.676 51.576,75.676 "
       style="fill:none;stroke:#000000;stroke-width:0.05mm"
       id="polygon10" />
    <polygon
       points="31.725,75.676 31.725,78.775 32.526,78.775 32.526,84.576 31.725,84.576 31.725,87.676 32.526,87.676 32.526,88.676 46.526,88.676 46.526,87.676 47.325,87.676 47.325,84.576 46.526,84.576 46.526,78.775 47.325,78.775 47.325,75.676 46.526,75.676 46.526,74.676 32.526,74.676 32.526,75.676 "
       style="fill:none;stroke:#000000;stroke-width:0.05mm"
       id="polygon12" />
    <polygon
       points="69.826,56.626 69.826,59.726 70.626,59.726 70.626,65.526 69.826,65.526 69.826,68.626 70.626,68.626 70.626,69.626 84.626,69.626 84.626,68.626 85.426,68.626 85.426,65.526 84.626,65.526 84.626,59.726 85.426,59.726 85.426,56.626 84.626,56.626 84.626,55.626 70.626,55.626 70.626,56.626 "
       style="fill:none;stroke:#000000;stroke-width:0.05mm"
       id="polygon14" />
    <polygon
       points="50.776,56.626 50.776,59.726 51.576,59.726 51.576,65.526 50.776,65.526 50.776,68.626 51.576,68.626 51.576,69.626 65.576,69.626 65.576,68.626 66.376,68.626 66.376,65.526 65.576,65.526 65.576,59.726 66.376,59.726 66.376,56.626 65.576,56.626 65.576,55.626 51.576,55.626 51.576,56.626 "
       style="fill:none;stroke:#000000;stroke-width:0.05mm"
       id="polygon16" />
    <polygon
       points="31.725,56.626 31.725,59.726 32.526,59.726 32.526,65.526 31.725,65.526 31.725,68.626 32.526,68.626 32.526,69.626 46.526,69.626 46.526,68.626 47.325,68.626 47.325,65.526 46.526,65.526 46.526,59.726 47.325,59.726 47.325,56.626 46.526,56.626 46.526,55.626 32.526,55.626 32.526,56.626 "
       style="fill:none;stroke:#000000;stroke-width:0.05mm"
       id="polygon18" />
    <polygon
       points="69.826,37.576 69.826,40.676 70.626,40.676 70.626,46.476 69.826,46.476 69.826,49.576 70.626,49.576 70.626,50.576 84.626,50.576 84.626,49.576 85.426,49.576 85.426,46.476 84.626,46.476 84.626,40.676 85.426,40.676 85.426,37.576 84.626,37.576 84.626,36.576 70.626,36.576 70.626,37.576 "
       style="fill:none;stroke:#000000;stroke-width:0.05mm"
       id="polygon20" />
    <polygon
       points="50.776,37.576 50.776,40.676 51.576,40.676 51.576,46.476 50.776,46.476 50.776,49.576 51.576,49.576 51.576,50.576 65.576,50.576 65.576,49.576 66.376,49.576 66.376,46.476 65.576,46.476 65.576,40.676 66.376,40.676 66.376,37.576 65.576,37.576 65.576,36.576 51.576,36.576 51.576,37.576 "
       style="fill:none;stroke:#000000;stroke-width:0.05mm"
       id="polygon22" />
    <polygon
       points="31.725,37.576 31.725,40.676 32.526,40.676 32.526,46.476 31.725,46.476 31.725,49.576 32.526,49.576 32.526,50.576 46.526,50.576 46.526,49.576 47.325,49.576 47.325,46.476 46.526,46.476 46.526,40.676 47.325,40.676 47.325,37.576 46.526,37.576 46.526,36.576 32.526,36.576 32.526,37.576 "
       style="fill:none;stroke:#000000;stroke-width:0.05mm"
       id="polygon24" />
    <polygon
       points="69.826,18.526 69.826,21.626 70.626,21.626 70.626,27.425 69.826,27.425 69.826,30.526 70.626,30.526 70.626,31.526 84.626,31.526 84.626,30.526 85.426,30.526 85.426,27.425 84.626,27.425 84.626,21.626 85.426,21.626 85.426,18.526 84.626,18.526 84.626,17.526 70.626,17.526 70.626,18.526 "
       style="fill:none;stroke:#000000;stroke-width:0.05mm"
       id="polygon26" />
    <polygon
       points="50.776,18.526 50.776,21.626 51.576,21.626 51.576,27.425 50.776,27.425 50.776,30.526 51.576,30.526 51.576,31.526 65.576,31.526 65.576,30.526 66.376,30.526 66.376,27.425 65.576,27.425 65.576,21.626 66.376,21.626 66.376,18.526 65.576,18.526 65.576,17.526 51.576,17.526 51.576,18.526 "
       style="fill:none;stroke:#000000;stroke-width:0.05mm"
       id="polygon28" />
    <polygon
       points="31.725,18.526 31.725,21.626 32.526,21.626 32.526,27.425 31.725,27.425 31.725,30.526 32.526,30.526 32.526,31.526 46.526,31.526 46.526,30.526 47.325,30.526 47.325,27.425 46.526,27.425 46.526,21.626 47.325,21.626 47.325,18.526 46.526,18.526 46.526,17.526 32.526,17.526 32.526,18.526 "
       style="fill:none;stroke:#000000;stroke-width:0.05mm"
       id="polygon30" />
    <polygon
       points="8.787,9.119 8.574,9.537 8.501,10.001 8.574,10.464 8.787,10.882 9.119,11.214 9.537,11.427 10.001,11.501 10.464,11.427 10.882,11.214 11.214,10.882 11.427,10.464 11.501,10.001 11.427,9.537 11.214,9.119 10.882,8.787 10.464,8.574 10.001,8.501 9.537,8.574 9.119,8.787 "
       style="fill:none;stroke:#000000;stroke-width:0.05mm"
       id="polygon32" />
    <polygon
       points="90.938,9.119 90.725,9.537 90.652,10.001 90.725,10.464 90.938,10.882 91.27,11.214 91.688,11.427 92.152,11.501 92.615,11.427 93.033,11.214 93.365,10.882 93.578,10.464 93.652,10.001 93.578,9.537 93.365,9.119 93.033,8.787 92.615,8.574 92.152,8.501 91.688,8.574 91.27,8.787 "
       style="fill:none;stroke:#000000;stroke-width:0.05mm"
       id="polygon34" />
  </g>
</svg>
