<?xml version="1.0"?>
<!-- Generated by SVGo -->
<svg width="87.151mm" height="116.201mm"
     viewBox="0.000 0.000 87.151 116.201"
     xmlns="http://www.w3.org/2000/svg" 
     xmlns:xlink="http://www.w3.org/1999/xlink">
<polygon points="82.151,111.201 5.000,111.201 5.000,5.000 82.151,5.000" style="fill:none;stroke-width:0.050000mm;stroke:black"/>
<polygon points="9.227,103.823 8.530,104.178 7.977,104.731 7.622,105.428 7.499,106.201 7.622,106.973 7.977,107.670 8.530,108.223 9.227,108.578 10.000,108.701 10.772,108.578 11.469,108.223 12.022,107.670 12.377,106.973 12.500,106.201 12.377,105.428 12.022,104.731 11.469,104.178 10.772,103.823 10.000,103.701" style="fill:none;stroke-width:0.050000mm;stroke:black"/>
<polygon points="76.378,103.823 75.681,104.178 75.128,104.731 74.773,105.428 74.651,106.201 74.773,106.973 75.128,107.670 75.681,108.223 76.378,108.578 77.151,108.701 77.923,108.578 78.620,108.223 79.173,107.670 79.528,106.973 79.651,106.201 79.528,105.428 79.173,104.731 78.620,104.178 77.923,103.823 77.151,103.701" style="fill:none;stroke-width:0.050000mm;stroke:black"/>
<polygon points="9.227,7.622 8.530,7.977 7.977,8.530 7.622,9.227 7.499,10.000 7.622,10.772 7.977,11.469 8.530,12.022 9.227,12.377 10.000,12.500 10.772,12.377 11.469,12.022 12.022,11.469 12.377,10.772 12.500,10.000 12.377,9.227 12.022,8.530 11.469,7.977 10.772,7.622 10.000,7.500" style="fill:none;stroke-width:0.050000mm;stroke:black"/>
<polygon points="76.378,7.622 75.681,7.977 75.128,8.530 74.773,9.227 74.651,10.000 74.773,10.772 75.128,11.469 75.681,12.022 76.378,12.377 77.151,12.500 77.923,12.377 78.620,12.022 79.173,11.469 79.528,10.772 79.651,10.000 79.528,9.227 79.173,8.530 78.620,7.977 77.923,7.622 77.151,7.500" style="fill:none;stroke-width:0.050000mm;stroke:black"/>
</svg>
