<?xml version="1.0"?>
<!-- Generated by SVGo -->
<svg width="87.151mm" height="121.201mm"
     viewBox="0.000 0.000 87.151 121.201"
     xmlns="http://www.w3.org/2000/svg" 
     xmlns:xlink="http://www.w3.org/1999/xlink">
<polygon points="82.151,116.201 5.000,116.201 5.000,5.000 82.151,5.000" style="fill:none;stroke-width:0.050000mm;stroke:black"/>
<polygon points="9.536,109.774 9.118,109.987 8.786,110.319 8.573,110.737 8.500,111.201 8.573,111.664 8.786,112.082 9.118,112.414 9.536,112.627 10.000,112.701 10.463,112.627 10.881,112.414 11.213,112.082 11.426,111.664 11.500,111.201 11.426,110.737 11.213,110.319 10.881,109.987 10.463,109.774 10.000,109.701" style="fill:none;stroke-width:0.050000mm;stroke:black"/>
<polygon points="76.687,109.774 76.269,109.987 75.937,110.319 75.724,110.737 75.651,111.201 75.724,111.664 75.937,112.082 76.269,112.414 76.687,112.627 77.151,112.701 77.614,112.627 78.032,112.414 78.364,112.082 78.577,111.664 78.651,111.201 78.577,110.737 78.364,110.319 78.032,109.987 77.614,109.774 77.151,109.701" style="fill:none;stroke-width:0.050000mm;stroke:black"/>
<polygon points="9.536,8.573 9.118,8.786 8.786,9.118 8.573,9.536 8.500,10.000 8.573,10.463 8.786,10.881 9.118,11.213 9.536,11.426 10.000,11.500 10.463,11.426 10.881,11.213 11.213,10.881 11.426,10.463 11.500,10.000 11.426,9.536 11.213,9.118 10.881,8.786 10.463,8.573 10.000,8.500" style="fill:none;stroke-width:0.050000mm;stroke:black"/>
<polygon points="76.687,8.573 76.269,8.786 75.937,9.118 75.724,9.536 75.651,10.000 75.724,10.463 75.937,10.881 76.269,11.213 76.687,11.426 77.151,11.500 77.614,11.426 78.032,11.213 78.364,10.881 78.577,10.463 78.651,10.000 78.577,9.536 78.364,9.118 78.032,8.786 77.614,8.573 77.151,8.500" style="fill:none;stroke-width:0.050000mm;stroke:black"/>
</svg>
