<?xml version="1.0"?>
<!-- Generated by SVGo -->
<svg width="87.152mm" height="121.202mm"
     viewBox="0.000 0.000 87.152 121.202"
     xmlns="http://www.w3.org/2000/svg" 
     xmlns:xlink="http://www.w3.org/1999/xlink">
<polygon points="79.152,5.001 79.387,5.010 79.621,5.037 79.852,5.083 80.079,5.147 80.300,5.229 80.513,5.327 80.719,5.443 80.915,5.573 81.100,5.719 81.273,5.879 81.433,6.052 81.579,6.237 81.709,6.433 81.825,6.639 81.923,6.852 82.005,7.073 82.069,7.300 82.115,7.531 82.142,7.765 82.152,8.001 82.152,113.202 82.142,113.437 82.115,113.671 82.069,113.902 82.005,114.129 81.923,114.350 81.825,114.563 81.709,114.769 81.579,114.965 81.433,115.150 81.273,115.323 81.100,115.483 80.915,115.629 80.719,115.759 80.513,115.875 80.300,115.973 80.079,116.055 79.852,116.119 79.621,116.165 79.387,116.192 79.151,116.202 8.001,116.202 7.765,116.192 7.531,116.165 7.300,116.119 7.073,116.055 6.852,115.973 6.639,115.875 6.433,115.759 6.237,115.629 6.052,115.483 5.879,115.323 5.719,115.150 5.573,114.965 5.443,114.769 5.327,114.563 5.229,114.350 5.147,114.129 5.083,113.902 5.037,113.671 5.010,113.437 5.000,113.201 5.001,8.001 5.010,7.765 5.037,7.531 5.083,7.300 5.147,7.073 5.229,6.852 5.327,6.639 5.443,6.433 5.573,6.237 5.719,6.052 5.879,5.879 6.052,5.719 6.237,5.573 6.433,5.443 6.639,5.327 6.852,5.229 7.073,5.147 7.300,5.083 7.531,5.037 7.765,5.010 8.001,5.000" style="fill:none;stroke-width:0.050000mm;stroke:black"/>
<polygon points="9.537,109.775 9.119,109.988 8.787,110.320 8.574,110.738 8.501,111.202 8.574,111.665 8.787,112.083 9.119,112.415 9.537,112.628 10.001,112.702 10.464,112.628 10.882,112.415 11.214,112.083 11.427,111.665 11.501,111.202 11.427,110.738 11.214,110.320 10.882,109.988 10.464,109.775 10.001,109.702" style="fill:none;stroke-width:0.050000mm;stroke:black"/>
<polygon points="76.688,109.775 76.270,109.988 75.938,110.320 75.725,110.738 75.652,111.202 75.725,111.665 75.938,112.083 76.270,112.415 76.688,112.628 77.152,112.702 77.615,112.628 78.033,112.415 78.365,112.083 78.578,111.665 78.652,111.202 78.578,110.738 78.365,110.320 78.033,109.988 77.615,109.775 77.152,109.702" style="fill:none;stroke-width:0.050000mm;stroke:black"/>
<polygon points="9.537,8.574 9.119,8.787 8.787,9.119 8.574,9.537 8.501,10.001 8.574,10.464 8.787,10.882 9.119,11.214 9.537,11.427 10.001,11.501 10.464,11.427 10.882,11.214 11.214,10.882 11.427,10.464 11.501,10.001 11.427,9.537 11.214,9.119 10.882,8.787 10.464,8.574 10.001,8.501" style="fill:none;stroke-width:0.050000mm;stroke:black"/>
<polygon points="76.688,8.574 76.270,8.787 75.938,9.119 75.725,9.537 75.652,10.001 75.725,10.464 75.938,10.882 76.270,11.214 76.688,11.427 77.152,11.501 77.615,11.427 78.033,11.214 78.365,10.882 78.578,10.464 78.652,10.001 78.578,9.537 78.365,9.119 78.033,8.787 77.615,8.574 77.152,8.501" style="fill:none;stroke-width:0.050000mm;stroke:black"/>
</svg>
