<?xml version="1.0" encoding="UTF-8" standalone="no"?>
<svg
   xmlns:dc="http://purl.org/dc/elements/1.1/"
   xmlns:cc="http://creativecommons.org/ns#"
   xmlns:rdf="http://www.w3.org/1999/02/22-rdf-syntax-ns#"
   xmlns:svg="http://www.w3.org/2000/svg"
   xmlns="http://www.w3.org/2000/svg"
   xmlns:sodipodi="http://sodipodi.sourceforge.net/DTD/sodipodi-0.dtd"
   xmlns:inkscape="http://www.inkscape.org/namespaces/inkscape"
   width="87.151mm"
   height="121.201mm"
   viewBox="0.000 0.000 87.151 121.201"
   version="1.1"
   id="svg36"
   sodipodi:docname="mmpad_plate_layout.svg"
   inkscape:version="1.0.1 (3bc2e813f5, 2020-09-07)">
  <metadata
     id="metadata42">
    <rdf:RDF>
      <cc:Work
         rdf:about="">
        <dc:format>image/svg+xml</dc:format>
        <dc:type
           rdf:resource="http://purl.org/dc/dcmitype/StillImage" />
        <dc:title></dc:title>
      </cc:Work>
    </rdf:RDF>
  </metadata>
  <defs
     id="defs40" />
  <sodipodi:namedview
     pagecolor="#ffffff"
     bordercolor="#666666"
     borderopacity="1"
     objecttolerance="10"
     gridtolerance="10"
     guidetolerance="10"
     inkscape:pageopacity="0"
     inkscape:pageshadow="2"
     inkscape:window-width="1880"
     inkscape:window-height="1000"
     id="namedview38"
     showgrid="false"
     inkscape:snap-midpoints="true"
     inkscape:zoom="1.8948552"
     inkscape:cx="123.34112"
     inkscape:cy="174.85981"
     inkscape:window-x="20"
     inkscape:window-y="900"
     inkscape:window-maximized="0"
     inkscape:current-layer="layer3" />
  <g
     inkscape:groupmode="layer"
     id="layer2"
     inkscape:label="BottomPlate"
     style="display:inline"
     sodipodi:insensitive="true">
    <g
       id="g890">
      <polygon
         points="5,5 82.151,5 82.151,116.201 5,116.201 "
         style="fill:none;stroke:#000000;stroke-width:0.05mm"
         id="polygon867" />
      <polygon
         points="8.786,110.319 8.573,110.737 8.5,111.201 8.573,111.664 8.786,112.082 9.118,112.414 9.536,112.627 10,112.701 10.463,112.627 10.881,112.414 11.213,112.082 11.426,111.664 11.5,111.201 11.426,110.737 11.213,110.319 10.881,109.987 10.463,109.774 10,109.701 9.536,109.774 9.118,109.987 "
         style="fill:none;stroke:#000000;stroke-width:0.05mm"
         id="polygon869" />
      <polygon
         points="75.937,110.319 75.724,110.737 75.651,111.201 75.724,111.664 75.937,112.082 76.269,112.414 76.687,112.627 77.151,112.701 77.614,112.627 78.032,112.414 78.364,112.082 78.577,111.664 78.651,111.201 78.577,110.737 78.364,110.319 78.032,109.987 77.614,109.774 77.151,109.701 76.687,109.774 76.269,109.987 "
         style="fill:none;stroke:#000000;stroke-width:0.05mm"
         id="polygon871" />
      <polygon
         points="8.786,9.118 8.573,9.536 8.5,10 8.573,10.463 8.786,10.881 9.118,11.213 9.536,11.426 10,11.5 10.463,11.426 10.881,11.213 11.213,10.881 11.426,10.463 11.5,10 11.426,9.536 11.213,9.118 10.881,8.786 10.463,8.573 10,8.5 9.536,8.573 9.118,8.786 "
         style="fill:none;stroke:#000000;stroke-width:0.05mm"
         id="polygon873" />
      <polygon
         points="75.937,9.118 75.724,9.536 75.651,10 75.724,10.463 75.937,10.881 76.269,11.213 76.687,11.426 77.151,11.5 77.614,11.426 78.032,11.213 78.364,10.881 78.577,10.463 78.651,10 78.577,9.536 78.364,9.118 78.032,8.786 77.614,8.573 77.151,8.5 76.687,8.573 76.269,8.786 "
         style="fill:none;stroke:#000000;stroke-width:0.05mm"
         id="polygon875" />
    </g>
  </g>
  <g
     inkscape:groupmode="layer"
     id="layer3"
     inkscape:label="Component">
    <g
       id="g931"
       transform="translate(0,-1.9999993)">
      <rect
         style="fill:#00ffff;stroke:#000000;stroke-width:0;stroke-miterlimit:4;stroke-dasharray:none"
         id="rect925"
         width="33"
         height="18"
         x="36.575001"
         y="14.525" />
      <rect
         style="fill:#cccccc;stroke:#000000;stroke-width:0;stroke-miterlimit:4;stroke-dasharray:none"
         id="rect927"
         width="22"
         height="10"
         x="14.575"
         y="18.525002" />
    </g>
  </g>
  <g
     inkscape:groupmode="layer"
     id="layer1"
     inkscape:label="TopPlate"
     sodipodi:insensitive="true">
    <polygon
       points="5,5 82.151,5 82.151,116.201 5,116.201 "
       style="fill:none;stroke:#000000;stroke-width:0.05mm"
       id="polygon2" />
    <polygon
       points="8.786,110.319 8.573,110.737 8.5,111.201 8.573,111.664 8.786,112.082 9.118,112.414 9.536,112.627 10,112.701 10.463,112.627 10.881,112.414 11.213,112.082 11.426,111.664 11.5,111.201 11.426,110.737 11.213,110.319 10.881,109.987 10.463,109.774 10,109.701 9.536,109.774 9.118,109.987 "
       style="fill:none;stroke:#000000;stroke-width:0.05mm"
       id="polygon4" />
    <polygon
       points="75.937,110.319 75.724,110.737 75.651,111.201 75.724,111.664 75.937,112.082 76.269,112.414 76.687,112.627 77.151,112.701 77.614,112.627 78.032,112.414 78.364,112.082 78.577,111.664 78.651,111.201 78.577,110.737 78.364,110.319 78.032,109.987 77.614,109.774 77.151,109.701 76.687,109.774 76.269,109.987 "
       style="fill:none;stroke:#000000;stroke-width:0.05mm"
       id="polygon6" />
    <polygon
       points="54.825,90.675 54.825,93.774 55.625,93.774 55.625,99.575 54.825,99.575 54.825,102.675 55.625,102.675 55.625,103.675 69.625,103.675 69.625,102.675 70.425,102.675 70.425,99.575 69.625,99.575 69.625,93.774 70.425,93.774 70.425,90.675 69.625,90.675 69.625,89.675 55.625,89.675 55.625,90.675 "
       style="fill:none;stroke:#000000;stroke-width:0.05mm"
       id="polygon8" />
    <polygon
       points="35.775,90.675 35.775,93.774 36.575,93.774 36.575,99.575 35.775,99.575 35.775,102.675 36.575,102.675 36.575,103.675 50.575,103.675 50.575,102.675 51.375,102.675 51.375,99.575 50.575,99.575 50.575,93.774 51.375,93.774 51.375,90.675 50.575,90.675 50.575,89.675 36.575,89.675 36.575,90.675 "
       style="fill:none;stroke:#000000;stroke-width:0.05mm"
       id="polygon10" />
    <polygon
       points="16.724,90.675 16.724,93.774 17.525,93.774 17.525,99.575 16.724,99.575 16.724,102.675 17.525,102.675 17.525,103.675 31.525,103.675 31.525,102.675 32.323,102.675 32.323,99.575 31.525,99.575 31.525,93.774 32.323,93.774 32.323,90.675 31.525,90.675 31.525,89.675 17.525,89.675 17.525,90.675 "
       style="fill:none;stroke:#000000;stroke-width:0.05mm"
       id="polygon12" />
    <polygon
       points="54.825,71.625 54.825,74.725 55.625,74.725 55.625,80.525 54.825,80.525 54.825,83.625 55.625,83.625 55.625,84.625 69.625,84.625 69.625,83.625 70.425,83.625 70.425,80.525 69.625,80.525 69.625,74.725 70.425,74.725 70.425,71.625 69.625,71.625 69.625,70.625 55.625,70.625 55.625,71.625 "
       style="fill:none;stroke:#000000;stroke-width:0.05mm"
       id="polygon14" />
    <polygon
       points="35.775,71.625 35.775,74.725 36.575,74.725 36.575,80.525 35.775,80.525 35.775,83.625 36.575,83.625 36.575,84.625 50.575,84.625 50.575,83.625 51.375,83.625 51.375,80.525 50.575,80.525 50.575,74.725 51.375,74.725 51.375,71.625 50.575,71.625 50.575,70.625 36.575,70.625 36.575,71.625 "
       style="fill:none;stroke:#000000;stroke-width:0.05mm"
       id="polygon16" />
    <polygon
       points="16.724,71.625 16.724,74.725 17.525,74.725 17.525,80.525 16.724,80.525 16.724,83.625 17.525,83.625 17.525,84.625 31.525,84.625 31.525,83.625 32.323,83.625 32.323,80.525 31.525,80.525 31.525,74.725 32.323,74.725 32.323,71.625 31.525,71.625 31.525,70.625 17.525,70.625 17.525,71.625 "
       style="fill:none;stroke:#000000;stroke-width:0.05mm"
       id="polygon18" />
    <polygon
       points="54.825,52.575 54.825,55.675 55.625,55.675 55.625,61.475 54.825,61.475 54.825,64.575 55.625,64.575 55.625,65.575 69.625,65.575 69.625,64.575 70.425,64.575 70.425,61.475 69.625,61.475 69.625,55.675 70.425,55.675 70.425,52.575 69.625,52.575 69.625,51.575 55.625,51.575 55.625,52.575 "
       style="fill:none;stroke:#000000;stroke-width:0.05mm"
       id="polygon20" />
    <polygon
       points="35.775,52.575 35.775,55.675 36.575,55.675 36.575,61.475 35.775,61.475 35.775,64.575 36.575,64.575 36.575,65.575 50.575,65.575 50.575,64.575 51.375,64.575 51.375,61.475 50.575,61.475 50.575,55.675 51.375,55.675 51.375,52.575 50.575,52.575 50.575,51.575 36.575,51.575 36.575,52.575 "
       style="fill:none;stroke:#000000;stroke-width:0.05mm"
       id="polygon22" />
    <polygon
       points="16.724,52.575 16.724,55.675 17.525,55.675 17.525,61.475 16.724,61.475 16.724,64.575 17.525,64.575 17.525,65.575 31.525,65.575 31.525,64.575 32.323,64.575 32.323,61.475 31.525,61.475 31.525,55.675 32.323,55.675 32.323,52.575 31.525,52.575 31.525,51.575 17.525,51.575 17.525,52.575 "
       style="fill:none;stroke:#000000;stroke-width:0.05mm"
       id="polygon24" />
    <polygon
       points="54.825,33.525 54.825,36.625 55.625,36.625 55.625,42.425 54.825,42.425 54.825,45.525 55.625,45.525 55.625,46.525 69.625,46.525 69.625,45.525 70.425,45.525 70.425,42.425 69.625,42.425 69.625,36.625 70.425,36.625 70.425,33.525 69.625,33.525 69.625,32.525 55.625,32.525 55.625,33.525 "
       style="fill:none;stroke:#000000;stroke-width:0.05mm"
       id="polygon26" />
    <polygon
       points="35.775,33.525 35.775,36.625 36.575,36.625 36.575,42.425 35.775,42.425 35.775,45.525 36.575,45.525 36.575,46.525 50.575,46.525 50.575,45.525 51.375,45.525 51.375,42.425 50.575,42.425 50.575,36.625 51.375,36.625 51.375,33.525 50.575,33.525 50.575,32.525 36.575,32.525 36.575,33.525 "
       style="fill:none;stroke:#000000;stroke-width:0.05mm"
       id="polygon28" />
    <polygon
       points="16.724,33.525 16.724,36.625 17.525,36.625 17.525,42.425 16.724,42.425 16.724,45.525 17.525,45.525 17.525,46.525 31.525,46.525 31.525,45.525 32.323,45.525 32.323,42.425 31.525,42.425 31.525,36.625 32.323,36.625 32.323,33.525 31.525,33.525 31.525,32.525 17.525,32.525 17.525,33.525 "
       style="fill:none;stroke:#000000;stroke-width:0.05mm"
       id="polygon30" />
    <polygon
       points="8.786,9.118 8.573,9.536 8.5,10 8.573,10.463 8.786,10.881 9.118,11.213 9.536,11.426 10,11.5 10.463,11.426 10.881,11.213 11.213,10.881 11.426,10.463 11.5,10 11.426,9.536 11.213,9.118 10.881,8.786 10.463,8.573 10,8.5 9.536,8.573 9.118,8.786 "
       style="fill:none;stroke:#000000;stroke-width:0.05mm"
       id="polygon32" />
    <polygon
       points="75.937,9.118 75.724,9.536 75.651,10 75.724,10.463 75.937,10.881 76.269,11.213 76.687,11.426 77.151,11.5 77.614,11.426 78.032,11.213 78.364,10.881 78.577,10.463 78.651,10 78.577,9.536 78.364,9.118 78.032,8.786 77.614,8.573 77.151,8.5 76.687,8.573 76.269,8.786 "
       style="fill:none;stroke:#000000;stroke-width:0.05mm"
       id="polygon34" />
  </g>
</svg>
