<?xml version="1.0"?>
<!-- Generated by SVGo -->
<svg width="87.151mm" height="121.201mm"
     viewBox="0.000 0.000 87.151 121.201"
     xmlns="http://www.w3.org/2000/svg" 
     xmlns:xlink="http://www.w3.org/1999/xlink">
<polygon points="82.151,116.201 5.000,116.201 5.000,5.000 82.151,5.000" style="fill:none;stroke-width:0.050000mm;stroke:black"/>
<polygon points="9.536,109.774 9.118,109.987 8.786,110.319 8.573,110.737 8.500,111.201 8.573,111.664 8.786,112.082 9.118,112.414 9.536,112.627 10.000,112.701 10.463,112.627 10.881,112.414 11.213,112.082 11.426,111.664 11.500,111.201 11.426,110.737 11.213,110.319 10.881,109.987 10.463,109.774 10.000,109.701" style="fill:none;stroke-width:0.050000mm;stroke:black"/>
<polygon points="76.687,109.774 76.269,109.987 75.937,110.319 75.724,110.737 75.651,111.201 75.724,111.664 75.937,112.082 76.269,112.414 76.687,112.627 77.151,112.701 77.614,112.627 78.032,112.414 78.364,112.082 78.577,111.664 78.651,111.201 78.577,110.737 78.364,110.319 78.032,109.987 77.614,109.774 77.151,109.701" style="fill:none;stroke-width:0.050000mm;stroke:black"/>
<polygon points="55.625,89.675 55.625,90.675 54.825,90.675 54.825,93.774 55.625,93.774 55.625,99.575 54.825,99.575 54.825,102.675 55.625,102.675 55.625,103.675 69.625,103.675 69.625,102.675 70.425,102.675 70.425,99.575 69.625,99.575 69.625,93.774 70.425,93.774 70.425,90.675 69.625,90.675 69.625,89.675" style="fill:none;stroke-width:0.050000mm;stroke:black"/>
<polygon points="36.575,89.675 36.575,90.675 35.775,90.675 35.775,93.774 36.575,93.774 36.575,99.575 35.775,99.575 35.775,102.675 36.575,102.675 36.575,103.675 50.575,103.675 50.575,102.675 51.375,102.675 51.375,99.575 50.575,99.575 50.575,93.774 51.375,93.774 51.375,90.675 50.575,90.675 50.575,89.675" style="fill:none;stroke-width:0.050000mm;stroke:black"/>
<polygon points="17.525,89.675 17.525,90.675 16.724,90.675 16.724,93.774 17.525,93.774 17.525,99.575 16.724,99.575 16.724,102.675 17.525,102.675 17.525,103.675 31.525,103.675 31.525,102.675 32.323,102.675 32.323,99.575 31.525,99.575 31.525,93.774 32.323,93.774 32.323,90.675 31.525,90.675 31.525,89.675" style="fill:none;stroke-width:0.050000mm;stroke:black"/>
<polygon points="55.625,70.625 55.625,71.625 54.825,71.625 54.825,74.725 55.625,74.725 55.625,80.525 54.825,80.525 54.825,83.625 55.625,83.625 55.625,84.625 69.625,84.625 69.625,83.625 70.425,83.625 70.425,80.525 69.625,80.525 69.625,74.725 70.425,74.725 70.425,71.625 69.625,71.625 69.625,70.625" style="fill:none;stroke-width:0.050000mm;stroke:black"/>
<polygon points="36.575,70.625 36.575,71.625 35.775,71.625 35.775,74.725 36.575,74.725 36.575,80.525 35.775,80.525 35.775,83.625 36.575,83.625 36.575,84.625 50.575,84.625 50.575,83.625 51.375,83.625 51.375,80.525 50.575,80.525 50.575,74.725 51.375,74.725 51.375,71.625 50.575,71.625 50.575,70.625" style="fill:none;stroke-width:0.050000mm;stroke:black"/>
<polygon points="17.525,70.625 17.525,71.625 16.724,71.625 16.724,74.725 17.525,74.725 17.525,80.525 16.724,80.525 16.724,83.625 17.525,83.625 17.525,84.625 31.525,84.625 31.525,83.625 32.323,83.625 32.323,80.525 31.525,80.525 31.525,74.725 32.323,74.725 32.323,71.625 31.525,71.625 31.525,70.625" style="fill:none;stroke-width:0.050000mm;stroke:black"/>
<polygon points="55.625,51.575 55.625,52.575 54.825,52.575 54.825,55.675 55.625,55.675 55.625,61.475 54.825,61.475 54.825,64.575 55.625,64.575 55.625,65.575 69.625,65.575 69.625,64.575 70.425,64.575 70.425,61.475 69.625,61.475 69.625,55.675 70.425,55.675 70.425,52.575 69.625,52.575 69.625,51.575" style="fill:none;stroke-width:0.050000mm;stroke:black"/>
<polygon points="36.575,51.575 36.575,52.575 35.775,52.575 35.775,55.675 36.575,55.675 36.575,61.475 35.775,61.475 35.775,64.575 36.575,64.575 36.575,65.575 50.575,65.575 50.575,64.575 51.375,64.575 51.375,61.475 50.575,61.475 50.575,55.675 51.375,55.675 51.375,52.575 50.575,52.575 50.575,51.575" style="fill:none;stroke-width:0.050000mm;stroke:black"/>
<polygon points="17.525,51.575 17.525,52.575 16.724,52.575 16.724,55.675 17.525,55.675 17.525,61.475 16.724,61.475 16.724,64.575 17.525,64.575 17.525,65.575 31.525,65.575 31.525,64.575 32.323,64.575 32.323,61.475 31.525,61.475 31.525,55.675 32.323,55.675 32.323,52.575 31.525,52.575 31.525,51.575" style="fill:none;stroke-width:0.050000mm;stroke:black"/>
<polygon points="55.625,32.525 55.625,33.525 54.825,33.525 54.825,36.625 55.625,36.625 55.625,42.425 54.825,42.425 54.825,45.525 55.625,45.525 55.625,46.525 69.625,46.525 69.625,45.525 70.425,45.525 70.425,42.425 69.625,42.425 69.625,36.625 70.425,36.625 70.425,33.525 69.625,33.525 69.625,32.525" style="fill:none;stroke-width:0.050000mm;stroke:black"/>
<polygon points="36.575,32.525 36.575,33.525 35.775,33.525 35.775,36.625 36.575,36.625 36.575,42.425 35.775,42.425 35.775,45.525 36.575,45.525 36.575,46.525 50.575,46.525 50.575,45.525 51.375,45.525 51.375,42.425 50.575,42.425 50.575,36.625 51.375,36.625 51.375,33.525 50.575,33.525 50.575,32.525" style="fill:none;stroke-width:0.050000mm;stroke:black"/>
<polygon points="17.525,32.525 17.525,33.525 16.724,33.525 16.724,36.625 17.525,36.625 17.525,42.425 16.724,42.425 16.724,45.525 17.525,45.525 17.525,46.525 31.525,46.525 31.525,45.525 32.323,45.525 32.323,42.425 31.525,42.425 31.525,36.625 32.323,36.625 32.323,33.525 31.525,33.525 31.525,32.525" style="fill:none;stroke-width:0.050000mm;stroke:black"/>
<polygon points="9.536,8.573 9.118,8.786 8.786,9.118 8.573,9.536 8.500,10.000 8.573,10.463 8.786,10.881 9.118,11.213 9.536,11.426 10.000,11.500 10.463,11.426 10.881,11.213 11.213,10.881 11.426,10.463 11.500,10.000 11.426,9.536 11.213,9.118 10.881,8.786 10.463,8.573 10.000,8.500" style="fill:none;stroke-width:0.050000mm;stroke:black"/>
<polygon points="76.687,8.573 76.269,8.786 75.937,9.118 75.724,9.536 75.651,10.000 75.724,10.463 75.937,10.881 76.269,11.213 76.687,11.426 77.151,11.500 77.614,11.426 78.032,11.213 78.364,10.881 78.577,10.463 78.651,10.000 78.577,9.536 78.364,9.118 78.032,8.786 77.614,8.573 77.151,8.500" style="fill:none;stroke-width:0.050000mm;stroke:black"/>
</svg>
